[Header]
FileType HTR
DataType HTRS
FileVersion 1
NumSegments 64
NumFrames 3
DataFrameRate 24
EulerRotationOrder ZYX
CalibrationUnits mm
RotationUnits Degrees
GlobalAxisofGravity Y
BoneLengthAxis Y
ScaleFactor 1.0
[SegmentNames&Hierarchy]
Hips	GLOBAL
Spine	Hips
Spine1	Spine
Spine2	Spine1
Neck	Spine2
Head	Neck
LeftEye	Head
RightEye	Head
LeftShoulder	Spine2
LeftArm	LeftShoulder
LeftForeArm	LeftArm
LeftHand	LeftForeArm
LeftHandThumb1	LeftHand
LeftHandThumb2	LeftHandThumb1
LeftHandThumb3	LeftHandThumb2
LeftHandThumb4	LeftHandThumb3
LeftHandIndex1	LeftHand
LeftHandIndex2	LeftHandIndex1
LeftHandIndex3	LeftHandIndex2
LeftHandIndex4	LeftHandIndex3
LeftHandMiddle1	LeftHand
LeftHandMiddle2	LeftHandMiddle1
LeftHandMiddle3	LeftHandMiddle2
LeftHandMiddle4	LeftHandMiddle3
LeftHandRing1	LeftHand
LeftHandRing2	LeftHandRing1
LeftHandRing3	LeftHandRing2
LeftHandRing4	LeftHandRing3
LeftHandPinky1	LeftHand
LeftHandPinky2	LeftHandPinky1
LeftHandPinky3	LeftHandPinky2
LeftHandPinky4	LeftHandPinky3
RightShoulder	Spine2
RightArm	RightShoulder
RightForeArm	RightArm
RightHand	RightForeArm
RightHandPinky1	RightHand
RightHandPinky2	RightHandPinky1
RightHandPinky3	RightHandPinky2
RightHandPinky4	RightHandPinky3
RightHandRing1	RightHand
RightHandRing2	RightHandRing1
RightHandRing3	RightHandRing2
RightHandRing4	RightHandRing3
RightHandMiddle1	RightHand
RightHandMiddle2	RightHandMiddle1
RightHandMiddle3	RightHandMiddle2
RightHandMiddle4	RightHandMiddle3
RightHandIndex1	RightHand
RightHandIndex2	RightHandIndex1
RightHandIndex3	RightHandIndex2
RightHandIndex4	RightHandIndex3
RightHandThumb1	RightHand
RightHandThumb2	RightHandThumb1
RightHandThumb3	RightHandThumb2
RightHandThumb4	RightHandThumb3
LeftUpLeg	Hips
LeftLeg	LeftUpLeg
LeftFoot	LeftLeg
LeftToeBase	LeftFoot
RightUpLeg	Hips
RightLeg	RightUpLeg
RightFoot	RightLeg
RightToeBase	RightFoot
[BasePosition]
Hips	0	0	0	0	0	0	1
Spine	0	0	0	0	0	0	1
Spine1	0	0	0	0	0	0	1
Spine2	0	0	0	0	0	0	1
Neck	0	0	0	0	0	0	1
Head	0	0	0	0	0	0	1
LeftEye	0	0	0	0	0	0	1
RightEye	0	0	0	0	0	0	1
LeftShoulder	0	0	0	0	0	0	1
LeftArm	0	0	0	0	0	0	1
LeftForeArm	0	0	0	0	0	0	1
LeftHand	0	0	0	0	0	0	1
LeftHandThumb1	0	0	0	0	0	0	1
LeftHandThumb2	0	0	0	0	0	0	1
LeftHandThumb3	0	0	0	0	0	0	1
LeftHandThumb4	0	0	0	0	0	0	1
LeftHandIndex1	0	0	0	0	0	0	1
LeftHandIndex2	0	0	0	0	0	0	1
LeftHandIndex3	0	0	0	0	0	0	1
LeftHandIndex4	0	0	0	0	0	0	1
LeftHandMiddle1	0	0	0	0	0	0	1
LeftHandMiddle2	0	0	0	0	0	0	1
LeftHandMiddle3	0	0	0	0	0	0	1
LeftHandMiddle4	0	0	0	0	0	0	1
LeftHandRing1	0	0	0	0	0	0	1
LeftHandRing2	0	0	0	0	0	0	1
LeftHandRing3	0	0	0	0	0	0	1
LeftHandRing4	0	0	0	0	0	0	1
LeftHandPinky1	0	0	0	0	0	0	1
LeftHandPinky2	0	0	0	0	0	0	1
LeftHandPinky3	0	0	0	0	0	0	1
LeftHandPinky4	0	0	0	0	0	0	1
RightShoulder	0	0	0	0	0	0	1
RightArm	0	0	0	0	0	0	1
RightForeArm	0	0	0	0	0	0	1
RightHand	0	0	0	0	0	0	1
RightHandPinky1	0	0	0	0	0	0	1
RightHandPinky2	0	0	0	0	0	0	1
RightHandPinky3	0	0	0	0	0	0	1
RightHandPinky4	0	0	0	0	0	0	1
RightHandRing1	0	0	0	0	0	0	1
RightHandRing2	0	0	0	0	0	0	1
RightHandRing3	0	0	0	0	0	0	1
RightHandRing4	0	0	0	0	0	0	1
RightHandMiddle1	0	0	0	0	0	0	1
RightHandMiddle2	0	0	0	0	0	0	1
RightHandMiddle3	0	0	0	0	0	0	1
RightHandMiddle4	0	0	0	0	0	0	1
RightHandIndex1	0	0	0	0	0	0	1
RightHandIndex2	0	0	0	0	0	0	1
RightHandIndex3	0	0	0	0	0	0	1
RightHandIndex4	0	0	0	0	0	0	1
RightHandThumb1	0	0	0	0	0	0	1
RightHandThumb2	0	0	0	0	0	0	1
RightHandThumb3	0	0	0	0	0	0	1
RightHandThumb4	0	0	0	0	0	0	1
LeftUpLeg	0	0	0	0	0	0	1
LeftLeg	0	0	0	0	0	0	1
LeftFoot	0	0	0	0	0	0	1
LeftToeBase	0	0	0	0	0	0	1
RightUpLeg	0	0	0	0	0	0	1
RightLeg	0	0	0	0	0	0	1
RightFoot	0	0	0	0	0	0	1
RightToeBase	0	0	0	0	0	0	1
[Hips]
16	0.9459978342	873.4257813	2860.838623	21.36987877	-7.562662601	-10.48314857	1.0
17	-1.184650898	852.3198242	3041.868164	24.38970566	-11.68025684	-13.86354828	1.0
18	-0.4940487444	859.71521	3258.149902	22.99511147	-14.96397972	-10.71616936	1.0
[Spine]
16	0	101.8159943	1.315000057	13.74825954	-1.641179562	7.7967062	1.0
17	0	101.8159943	1.315000057	14.60610676	4.993936062	9.052078247	1.0
18	0	101.8159943	1.315000057	15.46499443	11.25297928	4.977597713	1.0
[Spine1]
16	0	100.8349991	-10.00800037	1.976637602	-0.2571211457	1.118798137	1.0
17	0	100.8349991	-10.00800037	1.436307669	1.400212288	1.519815207	1.0
18	0	100.8349991	-10.00800037	1.165068269	3.028517723	0.779506743	1.0
[Spine2]
16	0	91	-13.73399925	1.971859097	-0.2712242603	1.102586865	1.0
17	0	91	-13.73399925	1.456253886	1.348380446	1.498105407	1.0
18	0	91	-13.73399925	1.199184299	2.988441467	0.7600345612	1.0
[Neck]
16	0	166.7169952	-25.16200066	-6.53893137	-0.4329433739	1.409993887	1.0
17	0	166.7169952	-25.16200066	-7.028143406	-0.7857106328	1.425372005	1.0
18	0	166.7169952	-25.16200066	-7.43923378	-1.525375724	1.572119594	1.0
[Head]
16	0	96.17900085	16.84999847	-26.07688522	10.08387852	-5.434609413	1.0
17	0	96.17900085	16.84999847	-26.53984642	7.769264221	-7.633212566	1.0
18	0	96.17900085	16.84999847	-24.72348785	2.430620432	-5.31667614	1.0
[LeftEye]
16	30.6760006	64.09500122	92.83599854	0	0	0	1.0
17	30.6760006	64.09500122	92.83599854	0	0	0	1.0
18	30.6760006	64.09500122	92.83599854	0	0	0	1.0
[RightEye]
16	-30.6760006	64.09500122	92.83499908	0	0	0	1.0
17	-30.6760006	64.09500122	92.83499908	0	0	0	1.0
18	-30.6760006	64.09500122	92.83499908	0	0	0	1.0
[LeftShoulder]
16	45.70400238	109.4599991	-26.28000069	0.8665910363	-0.6580899358	-15.62264538	1.0
17	45.70400238	109.4599991	-26.28000069	0.4397771955	1.242752075	-14.11508083	1.0
18	45.70400238	109.4599991	-26.28000069	0.0637838766	3.176055431	-12.35001945	1.0
[LeftArm]
16	105.923996	-5.24600029	-22.32099915	9.777556419	11.33173561	-57.57794571	1.0
17	105.923996	-5.24600029	-22.32099915	2.981172323	27.09444809	-64.70095062	1.0
18	105.923996	-5.24600029	-22.32099915	5.647088051	44.35242462	-59.14573288	1.0
[LeftForeArm]
16	278.414978	-0.0009999999311	0	-6.409580237e-06	-64.56879425	-0.0002038462699	1.0
17	278.414978	-0.0009999999311	0	5.141532711e-06	-58.99837875	-0.0002160277654	1.0
18	278.414978	-0.0009999999311	0	1.168228573e-05	-65.65271759	-0.0002091922652	1.0
[LeftHand]
16	283.2879944	0	0	0.6345059276	-25.50508499	31.56126404	1.0
17	283.2879944	0	0	8.231072426	-19.31624985	22.94608116	1.0
18	283.2879944	0	0	12.05822849	-15.98496151	17.18772697	1.0
[LeftHandThumb1]
16	24.6609993	-15.75	26.8239994	-7.687894821	-2.87317729	19.62811661	1.0
17	24.6609993	-15.75	26.8239994	-7.687894821	-2.87317729	19.62811661	1.0
18	24.6609993	-15.75	26.8239994	-7.687894821	-2.87317729	19.62811661	1.0
[LeftHandThumb2]
16	32.29800034	-18.64699936	18.64699936	11.46290112	39.68741608	-10.84496021	1.0
17	32.29800034	-18.64699936	18.64699936	11.18615913	36.2820282	-10.19470024	1.0
18	32.29800034	-18.64699936	18.64699936	10.02669621	28.30481148	-8.916065216	1.0
[LeftHandThumb3]
16	26.52600098	-15.31499958	15.31499958	-18.69257927	-29.64414787	31.09788704	1.0
17	26.52600098	-15.31499958	15.31499958	-16.1627388	-25.01387978	23.25219536	1.0
18	26.52600098	-15.31499958	15.31499958	-15.52696228	-23.58605003	21.63868141	1.0
[LeftHandThumb4]
16	19.54599953	-11.28499985	11.28499985	0	0	0	1.0
17	19.54599953	-11.28499985	11.28499985	0	0	0	1.0
18	19.54599953	-11.28499985	11.28499985	0	0	0	1.0
[LeftHandIndex1]
16	91.09299469	-5.170999527	22.60099792	2.237546682	-9.572919846	-21.93661499	1.0
17	91.09299469	-5.170999527	22.60099792	1.902649164	-10.68468094	-24.38523483	1.0
18	91.09299469	-5.170999527	22.60099792	1.432509661	-10.8362112	-29.0802002	1.0
[LeftHandIndex2]
16	36.76399994	0	0	-4.848492622	5.743033409	-80.33133698	1.0
17	36.76399994	0	0	-4.693717957	5.714633942	-78.78078461	1.0
18	36.76399994	0	0	-4.715780735	5.718954086	-79.00219727	1.0
[LeftHandIndex3]
16	28.83100128	0	0	-0.8056149483	2.959593534	-30.44860649	1.0
17	28.83100128	0	0	-0.7921040654	2.936513424	-30.185812	1.0
18	28.83100128	0	0	-0.8054894209	2.959381342	-30.44618797	1.0
[LeftHandIndex4]
16	23.92700005	0	0	0	0	0	1.0
17	23.92700005	0	0	0	0	0	1.0
18	23.92700005	0	0	0	0	0	1.0
[LeftHandMiddle1]
16	95.33399963	0	0	-3.25176096	-2.48915267	-44.52096176	1.0
17	95.33399963	0	0	-3.426351786	-2.973729849	-46.24902725	1.0
18	95.33399963	0	0	-3.651682377	-2.788669586	-48.40021133	1.0
[LeftHandMiddle2]
16	36.98199844	0	0	-3.410246849	5.302621841	-65.47044373	1.0
17	36.98199844	0	0	-3.414204121	5.304417133	-65.51322174	1.0
18	36.98199844	0	0	-3.470575571	5.329612732	-66.1215744	1.0
[LeftHandMiddle3]
16	29.50900078	0	0	-1.050106049	3.340289354	-34.89601517	1.0
17	29.50900078	0	0	-0.9766440392	3.232562542	-33.61440277	1.0
18	29.50900078	0	0	-0.9732347727	3.227422953	-33.55367279	1.0
[LeftHandMiddle4]
16	28.3390007	0	0	0	0	0	1.0
17	28.3390007	0	0	0	0	0	1.0
18	28.3390007	0	0	0	0	0	1.0
[LeftHandRing1]
16	91.04499817	-0.4390000105	-18.65100098	-4.066897392	1.606207371	-52.15948868	1.0
17	91.04499817	-0.4390000105	-18.65100098	-3.97209692	-0.6409596205	-51.34343338	1.0
18	91.04499817	-0.4390000105	-18.65100098	-4.026385307	-1.277669787	-51.86699295	1.0
[LeftHandRing2]
16	31.54000092	0	0	-4.272146702	5.615052223	-74.51199341	1.0
17	31.54000092	0	0	-4.393142223	5.647030354	-75.74494934	1.0
18	31.54000092	0	0	-4.513385296	5.676074505	-76.96382141	1.0
[LeftHandRing3]
16	29.37700081	0	0	-0.8115158677	2.969578743	-30.56259155	1.0
17	29.37700081	0	0	-0.7254728079	2.819004536	-28.85882378	1.0
18	29.37700081	0	0	-0.72007972	2.809205532	-28.74891281	1.0
[LeftHandRing4]
16	26.47500038	0	0	0	0	0	1.0
17	26.47500038	0	0	0	0	0	1.0
18	26.47500038	0	0	0	0	0	1.0
[LeftHandPinky1]
16	80.77799988	-4.887000084	-38.06099701	-5.338970184	2.366265059	-58.39653397	1.0
17	80.77799988	-4.887000084	-38.06099701	-5.22871685	2.196823835	-58.34571838	1.0
18	80.77799988	-4.887000084	-38.06099701	-4.655615807	0.981097579	-57.63194275	1.0
[LeftHandPinky2]
16	36	0	0	-2.582692862	4.84194231	-56.13096237	1.0
17	36	0	0	-2.624315023	4.869502068	-56.62251282	1.0
18	36	0	0	-2.700097084	4.918408871	-57.51077271	1.0
[LeftHandPinky3]
16	21.14200211	0	0	-0.9639776349	3.213469982	-33.38922501	1.0
17	21.14200211	0	0	-0.9222121835	3.149265766	-32.63650131	1.0
18	21.14200211	0	0	-0.9860320687	3.246616364	-33.78041077	1.0
[LeftHandPinky4]
16	19.75699997	0	0	0	0	0	1.0
17	19.75699997	0	0	0	0	0	1.0
18	19.75699997	0	0	0	0	0	1.0
[RightShoulder]
16	-45.70000076	109.4620056	-26.28000069	3.142255306	7.891385078	22.27368164	1.0
17	-45.70000076	109.4620056	-26.28000069	3.70961833	10.07449913	21.60644341	1.0
18	-45.70000076	109.4620056	-26.28000069	3.422009468	9.86217308	19.09193993	1.0
[RightArm]
16	-105.9280014	-5.248000145	-22.32099915	8.159970284	2.487892628	36.87501907	1.0
17	-105.9280014	-5.248000145	-22.32099915	2.784168482	19.50480652	36.16754913	1.0
18	-105.9280014	-5.248000145	-22.32099915	-9.024446487	30.34974861	35.29888153	1.0
[RightForeArm]
16	-278.414978	0	0	-6.258026406e-05	81.55947113	-8.775487368e-05	1.0
17	-278.414978	0	0	-0.0009718353976	89.17814636	-0.0006842482253	1.0
18	-278.414978	0	0	1.525878906e-05	101.3917313	-1.525878906e-05	1.0
[RightHand]
16	-283.2879944	0	0.0009999999311	30.79255486	3.647494316	-8.486692429	1.0
17	-283.2879944	0	0.0009999999311	28.2705307	-0.1564429998	-8.214982033	1.0
18	-283.2879944	0	0.0009999999311	34.13077927	14.28550816	-4.149560452	1.0
[RightHandPinky1]
16	-80.76699829	-4.885000229	-38.06000137	-9.879666328	-1.799161911	87.10240173	1.0
17	-80.76699829	-4.885000229	-38.06000137	-7.991452694	-0.1602256894	85.14470673	1.0
18	-80.76699829	-4.885000229	-38.06000137	-6.234033585	1.190928698	81.91563416	1.0
[RightHandPinky2]
16	-36	0	0.0009999999311	-3.261851549	-4.424060822	72.81023407	1.0
17	-36	0	0.0009999999311	-3.519290686	-4.49548769	76.11985016	1.0
18	-36	0	0.0009999999311	-3.922611475	-4.576209068	81.21631622	1.0
[RightHandPinky3]
16	-21.14200211	0	0	-2.891117096	-4.292073727	67.91474152	1.0
17	-21.14200211	0	0	-3.019794226	-4.341918468	69.62372589	1.0
18	-21.14200211	0	0	-3.150574684	-4.388145924	71.34199524	1.0
[RightHandPinky4]
16	-19.75699997	0	0	0	0	0	1.0
17	-19.75699997	0	0	0	0	0	1.0
18	-19.75699997	0	0	0	0	0	1.0
[RightHandRing1]
16	-91.03599548	-0.4390000105	-18.65100098	-5.928117275	2.238280296	78.39079285	1.0
17	-91.03599548	-0.4390000105	-18.65100098	-6.090353966	2.911242962	80.20314789	1.0
18	-91.03599548	-0.4390000105	-18.65100098	-5.816578865	3.821042776	77.08340454	1.0
[RightHandRing2]
16	-31.54000092	0	0	-3.180663109	-4.398149014	71.73484802	1.0
17	-31.54000092	0	0	-3.329955339	-4.444502831	73.67129517	1.0
18	-31.54000092	0	0	-3.645997524	-4.524866581	77.71139526	1.0
[RightHandRing3]
16	-29.37700081	0	0	-1.132812381	-3.036325455	40.9122467	1.0
17	-29.37700081	0	0	-1.233794093	-3.148902893	42.78386307	1.0
18	-29.37700081	0	0	-1.303268433	-3.22224021	44.03417587	1.0
[RightHandRing4]
16	-26.47500038	0	0	0	0	0	1.0
17	-26.47500038	0	0	0	0	0	1.0
18	-26.47500038	0	0	0	0	0	1.0
[RightHandMiddle1]
16	-95.32500458	0	0	-4.22385025	7.844556332	59.68392944	1.0
17	-95.32500458	0	0	-4.448658943	5.695953369	62.1092453	1.0
18	-95.32500458	0	0	-4.560413361	1.685599089	63.2864151	1.0
[RightHandMiddle2]
16	-36.98199844	0	0	-3.415841818	-4.4687047	74.7766037	1.0
17	-36.98199844	0	0	-3.333161354	-4.445429325	73.71260071	1.0
18	-36.98199844	0	0	-3.188571692	-4.400776863	71.83805847	1.0
[RightHandMiddle3]
16	-29.50900078	0	0	-1.866130233	-3.718272448	53.31539917	1.0
17	-29.50900078	0	0	-1.931672215	-3.766109943	54.31991577	1.0
18	-29.50900078	0	0	-1.980007172	-3.800263405	55.05296326	1.0
[RightHandMiddle4]
16	-28.3390007	0	0.0009999999311	0	0	0	1.0
17	-28.3390007	0	0.0009999999311	0	0	0	1.0
18	-28.3390007	0	0.0009999999311	0	0	0	1.0
[RightHandIndex1]
16	-91.08300018	-5.167999744	22.60099792	-3.492303133	0.5605892539	52.28503036	1.0
17	-91.08300018	-5.167999744	22.60099792	-4.009810925	1.346515298	57.4634819	1.0
18	-91.08300018	-5.167999744	22.60099792	-3.598471165	3.142586946	60.80111313	1.0
[RightHandIndex2]
16	-36.76399994	0	0	-2.119256973	-3.891638041	57.12908554	1.0
17	-36.76399994	0	0	-2.307887077	-4.007005215	59.86776733	1.0
18	-36.76399994	0	0	-2.372457504	-4.043692589	60.78761673	1.0
[RightHandIndex3]
16	-28.83100128	0	0	-0.8804257512	-2.718288183	35.88781357	1.0
17	-28.83100128	0	0	-0.843998611	-2.667266846	35.11227798	1.0
18	-28.83100128	0	0	-0.8296863437	-2.646805763	34.80335999	1.0
[RightHandIndex4]
16	-23.92700005	0	0	0	0	0	1.0
17	-23.92700005	0	0	0	0	0	1.0
18	-23.92700005	0	0	0	0	0	1.0
[RightHandThumb1]
16	-24.64799881	-15.72700024	26.82600021	-10.80079556	1.639939547	-1.271696329	1.0
17	-24.64799881	-15.72700024	26.82600021	-10.80079556	1.639939547	-1.271696329	1.0
18	-24.64799881	-15.72700024	26.82600021	-10.80079556	1.639939547	-1.271696329	1.0
[RightHandThumb2]
16	-32.29800034	-18.64699936	18.64699936	20.67684364	-27.39035797	-4.369709015	1.0
17	-32.29800034	-18.64699936	18.64699936	20.10267258	-25.42973328	-4.430620193	1.0
18	-32.29800034	-18.64699936	18.64699936	19.15062904	-22.66455269	-4.492711544	1.0
[RightHandThumb3]
16	-26.52600098	-15.31399918	15.31399918	-16.59217644	18.09558296	-8.381737709	1.0
17	-26.52600098	-15.31399918	15.31399918	-16.85191345	18.44348526	-9.278746605	1.0
18	-26.52600098	-15.31399918	15.31399918	-17.25034904	18.38365364	-9.925423622	1.0
[RightHandThumb4]
16	-19.54599953	-11.28499985	11.28499985	0	0	0	1.0
17	-19.54599953	-11.28499985	11.28499985	0	0	0	1.0
18	-19.54599953	-11.28499985	11.28499985	0	0	0	1.0
[LeftUpLeg]
16	82.07800293	-67.51699829	-15.99599934	-23.69688606	10.57580948	12.2292099	1.0
17	82.07800293	-67.51699829	-15.99599934	-50.9325676	16.45451736	14.80910015	1.0
18	82.07800293	-67.51699829	-15.99599934	-70.44313812	17.70808983	8.283900261	1.0
[LeftLeg]
16	0	-443.7049866	2.845999956	109.3059921	-0.2626200616	-0.743627429	1.0
17	0	-443.7049866	2.845999956	124.5012589	3.613845825	-5.237355709	1.0
18	0	-443.7049866	2.845999956	120.5477982	0.25707376	-2.229270697	1.0
[LeftFoot]
16	0	-444.2789917	-29.8219986	3.714041948	-0.8529509902	3.285337687	1.0
17	0	-444.2789917	-29.8219986	-1.855593324	-0.2985228896	11.70809841	1.0
18	0	-444.2789917	-29.8219986	-5.625106812	0.5518516302	13.0957756	1.0
[LeftToeBase]
16	0	-87.28699493	107.1060028	-1.568867683	-3.591977418e-07	6.258488838e-07	1.0
17	0	-87.28699493	107.1060028	-3.641477108	3.343259777e-06	7.179457953e-06	1.0
18	0	-87.28699493	107.1060028	-6.008664608	-4.437907592e-06	2.257558435e-06	1.0
[RightUpLeg]
16	-82.07800293	-67.51699829	-15.99599934	-61.01002121	6.904523849	6.45509243	1.0
17	-82.07800293	-67.51699829	-15.99599934	-50.91971588	7.713188648	8.758023262	1.0
18	-82.07800293	-67.51699829	-15.99599934	-29.0004425	2.367934227	4.484264851	1.0
[RightLeg]
16	0	-443.7049866	2.861999989	63.251091	-2.639833927	-3.719552994	1.0
17	0	-443.7049866	2.861999989	66.85254669	0.1659885645	-0.4833861291	1.0
18	0	-443.7049866	2.861999989	56.03325272	7.288621426	3.617297173	1.0
[RightFoot]
16	0	-444.2770081	-29.83799934	-16.14237785	0.3481630087	2.776210785	1.0
17	0	-444.2770081	-29.83799934	-31.95573425	0.7753740549	2.845312119	1.0
18	0	-444.2770081	-29.83799934	-37.89660263	0.9122059941	3.197775841	1.0
[RightToeBase]
16	0	-87.28699493	107.1060028	-6.674355507	-4.924513178e-06	-4.191547376e-08	1.0
17	0	-87.28699493	107.1060028	-6.673448563	1.183859013e-06	8.769659665e-09	1.0
18	0	-87.28699493	107.1060028	-10.97319412	2.607044962e-06	-7.773976449e-07	1.0
[EndOfFile]
